<svg width="26" height="26" viewBox="0 0 26 26" fill="none" xmlns="http://www.w3.org/2000/svg">
<g clip-path="url(#clip0)">
<path d="M20.557 12.4573C20.3301 12.2905 20.1373 12.2553 19.9609 12.1861C19.8693 12.1554 19.7848 12.1068 19.7122 12.0431C19.6397 11.9794 19.5805 11.9019 19.5382 11.815C19.3741 11.4661 19.2252 11.1078 19.0318 10.7757C18.8847 10.5232 18.8984 10.2979 18.9824 10.0361C19.1252 9.59107 19.1152 9.5309 18.6587 9.51251C17.9582 9.4843 17.6198 8.94572 17.1586 8.57577C16.8919 8.36176 16.6559 8.12286 16.6665 7.7398C16.6712 7.56797 16.5575 7.53111 16.4401 7.60812C16.0649 7.85437 15.7693 7.7129 15.4893 7.44445C15.3711 7.33109 15.2645 7.35109 15.1323 7.44191C14.7402 7.7112 14.264 7.80976 13.8565 8.05306C13.7174 8.13612 13.5756 8.02647 13.4384 7.99536C13.2834 7.96021 13.1824 7.97831 13.2047 8.16301C13.2406 8.45879 13.0774 8.66333 12.8867 8.8436C12.4352 9.27047 12.0359 9.73418 11.7354 10.2828C11.6596 10.4239 11.5541 10.5469 11.4262 10.6433C11.2983 10.7397 11.1511 10.8072 10.9946 10.8413C10.6866 10.9155 10.3947 11.0546 10.074 11.0773C9.94516 11.0864 9.92199 11.1674 9.90771 11.2715C9.84736 11.7109 9.78172 12.1506 9.79928 12.5953C9.81447 12.9799 9.67672 13.2554 9.32806 13.4474C8.3837 13.9675 7.85871 14.8169 7.53647 15.8115C7.45148 16.0804 7.28071 16.314 7.05029 16.4766C6.62787 16.7806 6.19175 17.0656 5.76915 17.3694C5.52343 17.546 5.25219 17.5149 4.98786 17.4818C4.70108 17.4435 4.41152 17.4301 4.12244 17.4418C3.97249 17.4557 3.82171 17.4263 3.6879 17.3572C3.55409 17.2882 3.44284 17.1822 3.36729 17.052C3.27566 16.9083 3.16882 16.7937 2.99005 16.7672C2.95119 16.7631 2.91441 16.7476 2.88437 16.7226C2.36034 16.2021 1.74916 15.7642 1.34312 15.1316C1.1192 14.7827 1.12478 14.3971 1.23689 14.0146C1.39177 13.4861 1.42387 12.9737 1.11719 12.483C1.05912 12.39 1.09392 12.3032 1.15347 12.2154C1.23436 12.0962 1.29584 11.9639 1.3739 11.8425C1.50041 11.6458 1.51345 11.4737 1.31102 11.3117C1.19399 11.2181 1.18773 11.0812 1.22285 10.9395C1.34113 10.4622 1.45328 9.98345 1.57393 9.5068C1.61955 9.33852 1.69793 9.18089 1.80459 9.04297C2.02918 8.74109 2.26251 8.4451 2.47391 8.13421C2.68167 7.83048 2.96607 7.58711 3.29826 7.42879C3.51234 7.32304 3.62274 7.16725 3.64804 6.91156C3.73164 6.06663 3.74816 5.21837 3.79258 4.37195C3.84409 3.39048 3.95303 2.41132 3.92008 1.42516C3.90841 1.07597 4.27757 0.768263 4.61965 0.800677C4.79778 0.817554 4.85914 0.941564 4.87516 1.09988C4.93145 1.65611 4.97306 2.21427 5.0465 2.76822C5.15903 3.61698 5.23121 4.46983 5.35923 5.33247C5.42253 5.16961 5.506 5.01143 5.54499 4.84294C5.62998 4.47575 5.86525 4.23543 6.16672 4.04379C6.53266 3.81117 6.91079 3.59646 7.26651 3.34934C7.69272 3.05324 8.15575 3.01372 8.64858 3.07454C9.25776 3.14971 9.25887 3.14545 9.51306 2.60739C9.57071 2.48534 9.63076 2.36356 9.67642 2.23686C9.81268 1.85873 10.0598 1.60215 10.4477 1.47583C10.9855 1.30073 11.4503 0.98123 11.9225 0.683962C12.1313 0.552515 12.3351 0.478483 12.5737 0.505541C13.1405 0.569845 13.7098 0.560784 14.278 0.557687C14.6142 0.555854 14.8499 0.689463 15.0194 0.969018C15.1393 1.16696 15.2686 1.35929 15.3867 1.55835C15.4744 1.70639 15.5918 1.74481 15.7533 1.69835C15.9946 1.62899 16.2392 1.56817 16.4605 1.44679C16.5187 1.41221 16.5858 1.39584 16.6533 1.3998C16.7208 1.40376 16.7856 1.42786 16.8393 1.469C17.2771 1.75005 17.7172 2.02755 18.1556 2.30776C18.2719 2.38212 18.3809 2.47913 18.4162 2.6092C18.4954 2.90043 18.6941 2.8633 18.8884 2.78894C19.2392 2.65464 19.5821 2.49941 19.9277 2.35148C20.4694 2.11962 21.0047 2.14747 21.493 2.46497C22.0028 2.79643 22.4968 3.15416 23.0536 3.40208C23.3446 3.53162 23.5289 3.7352 23.6062 4.02756C23.8254 4.85646 24.0329 5.68851 24.2393 6.52071C24.2897 6.72366 24.1904 6.90049 24.0925 7.06641C23.9803 7.26895 23.8525 7.46249 23.7104 7.6453C23.5607 7.82719 23.6007 7.9505 23.7695 8.07479C23.8876 8.17401 24.0106 8.26714 24.1382 8.35379C24.3075 8.45038 24.4371 8.60384 24.504 8.78691C24.6447 9.16566 24.7756 9.54793 24.8968 9.93375C24.9129 9.9942 24.9168 10.0572 24.9084 10.1192C24.8999 10.1812 24.8792 10.2409 24.8475 10.2948C24.5025 10.972 24.1711 11.6561 23.83 12.3354C23.7819 12.4311 23.8394 12.4797 23.885 12.5381C24.1166 12.8343 24.3319 13.1461 24.588 13.4193C24.784 13.6284 24.8426 13.8507 24.7746 14.1066C24.6509 14.5722 24.5086 15.033 24.3726 15.4953C24.3412 15.6021 24.2555 15.6697 24.1812 15.7452C23.8905 16.0402 23.5771 16.3148 23.3559 16.6722C23.2742 16.8042 23.1419 16.863 22.997 16.8954C22.9136 16.9199 22.8275 16.9342 22.7407 16.9378C22.1838 16.9216 21.8213 17.1273 21.7704 17.734C21.755 17.917 21.6009 18.0215 21.4408 18.0658C20.9244 18.2085 20.4764 18.5676 19.9089 18.5473C19.8033 18.5436 19.7497 18.6084 19.7542 18.7133C19.7634 18.9281 19.6569 19.1024 19.5585 19.279C19.3053 19.7337 18.9699 20.0337 18.3963 19.9397C18.125 19.8952 17.8618 19.8835 17.8145 20.2854C17.7995 20.4122 17.6352 20.5283 17.5261 20.6359C17.2653 20.8928 17.0366 21.2496 16.7209 21.3666C16.3318 21.5109 16.3238 21.7916 16.2274 22.0708C16.2022 22.1435 16.1865 22.2283 16.1385 22.2829C15.7928 22.6763 16.0559 23.0347 16.2025 23.3933C16.2687 23.5553 16.5055 23.4656 16.5954 23.6006C16.7112 23.7747 16.8326 23.6849 16.9876 23.6711C17.6429 23.6127 18.3354 23.3955 18.8988 23.9592C19.0161 24.0766 19.089 24.0514 19.1588 23.9122C19.3409 23.5484 20.1088 23.4794 20.384 23.8525C20.5392 24.0627 20.474 24.3426 20.4286 24.5826C20.3566 24.9628 19.905 25.236 19.5339 25.1392C19.3464 25.0903 19.2295 25.1558 19.0659 25.2454C18.6334 25.4921 18.1225 25.5629 17.6393 25.4431C17.3604 25.3727 17.0945 25.25 16.8244 25.1467C16.7444 25.1161 16.6509 25.0892 16.614 25.0036C16.5247 24.7963 16.4378 24.7648 16.1859 24.8325C15.9214 24.9036 15.6279 24.6966 15.4433 24.4784C15.3327 24.3477 15.2299 24.303 15.0784 24.2545C14.7818 24.1596 14.4488 24.0652 14.462 23.6414C14.4652 23.5398 14.4139 23.496 14.3149 23.5432C14.1779 23.6086 14.0444 23.5676 13.9223 23.5159C13.5072 23.3336 13.1104 23.1123 12.7372 22.8548C12.6263 22.7742 12.551 22.6536 12.5275 22.5185C12.5008 22.3665 12.4643 22.2164 12.4184 22.0691C12.2815 21.7035 12.3307 21.3777 12.568 21.0668C12.638 20.9624 12.6878 20.8458 12.7149 20.7231C12.8265 20.3136 13.0112 19.9738 13.45 19.8323C13.6665 19.7625 13.7275 19.6009 13.7027 19.3761C13.6842 19.146 13.6801 18.9149 13.6904 18.6843C13.6905 18.6168 13.7103 18.5507 13.7474 18.4943C13.993 18.1608 14.2444 17.8315 14.4969 17.5032C14.5414 17.4392 14.604 17.3901 14.6766 17.362C14.7493 17.3339 14.8287 17.3283 14.9046 17.3457C14.9812 17.3549 15.0586 17.3573 15.1357 17.3528C15.5813 17.3539 15.5813 17.3536 15.6315 16.9231C15.6351 16.8654 15.6417 16.8079 15.6514 16.7509C15.7365 16.3747 16.7623 15.6474 17.1473 15.6882C17.6009 15.7364 17.5542 15.7009 17.7763 15.3205C18.1058 14.7561 18.6388 14.3552 19.118 13.9173C19.1655 13.8739 19.2651 13.8781 19.3408 13.8769C19.3673 13.8796 19.3941 13.8769 19.4195 13.869C19.445 13.861 19.4685 13.8481 19.4888 13.8308C19.5091 13.8136 19.5257 13.7924 19.5377 13.7686C19.5496 13.7448 19.5566 13.7188 19.5583 13.6923C19.6551 13.1238 19.9245 12.6822 20.557 12.4573Z" fill="#AAACB8"/>
</g>
<defs>
<clipPath id="clip0">
<rect x="0.5" y="0.5" width="25" height="25" fill="white"/>
</clipPath>
</defs>
</svg>
