<svg width="26" height="26" viewBox="0 0 26 26" fill="none" xmlns="http://www.w3.org/2000/svg">
<g clip-path="url(#clip0)">
<path d="M2.15012 14.5208C2.73008 14.5235 2.70825 14.5246 2.67754 13.9496C2.63463 13.1462 2.74185 12.353 2.9251 11.5702C3.22922 10.2712 3.78648 9.09848 4.65278 8.07658C4.85544 7.83752 4.81615 7.52478 4.83513 7.24497C4.9276 5.88231 5.14012 4.54588 5.57786 3.24709C5.79113 2.6143 5.99841 1.98613 6.41513 1.44696C6.60724 1.1984 6.76673 1.11467 7.11361 1.22208C8.5962 1.68116 9.83259 2.53159 10.9891 3.52663C11.1812 3.69192 11.3168 3.90566 11.4772 4.09827C11.6544 4.31092 11.835 4.41744 12.1487 4.28342C13.0314 3.90635 13.952 3.67198 14.9263 3.71693C15.7535 3.7551 16.4587 4.0868 17.0652 4.62608C17.7025 5.19278 18.1715 5.86821 18.3661 6.72247C18.4786 7.21638 19.0937 7.61332 19.5984 7.63032C20.6116 7.66444 21.6124 7.77615 22.5976 8.05246C23.5151 8.30975 24.3984 8.62317 25.1925 9.15733C25.5149 9.37419 25.5776 9.58473 25.4096 9.92149C25.0397 10.663 24.6657 11.4052 24.1736 12.0742C23.5351 12.9423 22.7837 13.7027 21.8527 14.2599C21.558 14.4363 21.4085 14.6545 21.381 14.9939C21.3101 15.8681 20.9803 16.6677 20.6702 17.4783C20.0665 19.0568 18.887 20.1582 17.6578 21.224C17.4324 21.4194 17.391 21.7086 17.2327 21.9374C17.1597 22.0429 17.3283 22.0737 17.3994 22.1244C17.9246 22.4986 18.2844 23.0149 18.5578 23.5788C18.7531 23.9819 18.6057 24.3251 18.2371 24.5448C17.8105 24.8026 17.3008 24.8859 16.8143 24.7773C15.5972 24.5259 14.5066 24.0243 13.6276 23.121C13.5171 23.0075 13.3942 23.0104 13.2548 23.0318C11.9849 23.226 10.7407 23.1612 9.51985 22.716C9.18711 22.5946 8.83408 22.525 8.51566 22.3595C8.41086 22.3051 8.33764 22.3428 8.25764 22.4142C7.03975 23.5006 5.58642 23.7037 4.03811 23.5163C3.83429 23.4916 3.6311 23.391 3.44697 23.2902C3.14232 23.1234 3.03999 22.8032 3.12857 22.4363C3.2797 21.8102 3.76769 21.4678 4.24021 21.1171C4.58303 20.8627 4.97347 20.6903 5.36995 20.5365C5.53328 20.4731 5.59584 20.4261 5.43615 20.2693C4.71589 19.5621 4.08109 18.7883 3.64576 17.8676C3.62092 17.8163 3.58499 17.7711 3.54056 17.7354C3.49613 17.6997 3.44431 17.6743 3.38886 17.6611C2.37394 17.326 1.47223 16.7152 0.784542 15.8971C0.326309 15.3627 0.42113 14.9668 1.07196 14.6928C1.41797 14.5472 1.7803 14.5126 2.15012 14.5208Z" fill="#FFC5E6"/>
</g>
<defs>
<clipPath id="clip0">
<rect x="0.5" y="0.5" width="25" height="25" fill="white"/>
</clipPath>
</defs>
</svg>
