<svg width="26" height="26" viewBox="0 0 26 26" fill="none" xmlns="http://www.w3.org/2000/svg">
<g clip-path="url(#clip0)">
<path d="M10.0054 5.70471C9.68491 5.58001 9.38995 5.39782 9.13498 5.16711C8.93061 4.97663 8.70691 4.78652 8.82499 4.45254C8.85766 4.36017 8.78081 4.34023 8.72719 4.30257C8.07245 3.84267 8.08118 2.99269 8.73926 2.52327C8.96406 2.37219 9.2201 2.27391 9.48825 2.23577C9.62481 2.21127 9.76583 2.20139 9.7344 1.99835C9.73338 1.97442 9.73732 1.95053 9.74598 1.92819C9.75463 1.90586 9.76782 1.88555 9.7847 1.86855C10.0003 1.66385 10.189 1.37186 10.447 1.28204C11.1146 1.04957 11.7079 0.60727 12.4472 0.571292C12.8417 0.552094 13.2337 0.484059 13.6307 0.503436C13.9556 0.51929 14.2072 0.641344 14.3265 0.9692C14.4122 1.20465 14.5138 1.43433 14.5991 1.66992C14.7162 1.99349 14.8062 2.3172 15.0204 2.60993C15.2755 2.95854 15.245 3.4195 15.3426 3.83063C15.3755 3.95173 15.3963 4.07582 15.4046 4.20106C15.4285 4.95294 15.9241 5.3201 16.5324 5.59485C16.7436 5.69024 16.9677 5.65408 17.1886 5.63458C17.6696 5.58996 18.1547 5.63986 18.6166 5.78149C19.1023 5.93071 19.4497 6.26214 19.741 6.65309C20.3769 7.50665 21.2805 8.00687 22.1812 8.50273C22.5122 8.68496 22.8427 8.8557 23.1279 9.10573C23.2747 9.22672 23.3828 9.38824 23.4385 9.57017C23.4943 9.75211 23.4953 9.94642 23.4415 10.1289C23.3314 10.557 23.2596 10.9948 23.0953 11.4116C22.9147 11.8698 22.6116 12.1624 22.1704 12.383C21.664 12.6363 21.2054 12.9801 20.6809 13.2114C20.299 13.373 19.9051 13.5045 19.5027 13.6046C19.1466 13.699 18.9247 13.8843 18.8698 14.254C18.8332 14.5004 18.685 14.6445 18.4519 14.7202C18.0565 14.8487 18.0686 14.8465 18.2648 15.2246C18.6374 15.9425 19.0332 16.6493 19.0746 17.4928C19.0943 17.895 19.3329 18.2256 19.6321 18.4783C20.243 18.9943 20.5009 19.6595 20.5491 20.4338C20.5653 20.6934 20.4931 20.948 20.5427 21.2115C20.5818 21.4196 20.6388 21.6052 20.8009 21.7443C21.0669 21.9725 21.1724 22.2666 21.2085 22.6085C21.2403 22.8975 21.3602 23.1696 21.552 23.3881C21.8501 23.7402 22.0536 24.1602 22.3334 24.5309C22.5811 24.8591 22.2478 25.3276 21.812 25.3162C21.3519 25.3042 20.9011 25.386 20.4478 25.4406C20.2927 25.4593 20.1361 25.4181 19.995 25.431C19.5214 25.4744 19.0689 25.4119 18.602 25.3476C18.3659 25.315 18.0771 25.5254 17.7786 25.4974C17.626 25.4767 17.4839 25.4082 17.3726 25.3018C17.2613 25.1954 17.1865 25.0565 17.1589 24.905C17.1344 24.7705 17.1592 24.6317 17.2288 24.5141C17.2985 24.3965 17.4082 24.3079 17.5378 24.2647C17.8891 24.1485 18.0352 23.9025 18.0931 23.5623C18.2497 22.6428 18.2351 22.6108 17.4306 22.126C17.1903 21.9812 16.9409 21.8575 16.6882 21.7369C16.3186 21.5604 16.083 21.2721 16.016 20.8572C15.9544 20.4861 15.9168 20.1114 15.9033 19.7355C15.8935 19.4228 15.7668 19.2004 15.4592 19.0591C14.7112 18.7157 14.1605 18.1298 13.6783 17.4846C13.4581 17.1899 13.2099 17.0298 12.8397 17.0054C12.4289 16.9784 12.0153 16.9699 11.615 16.8202C11.3549 16.7229 11.0304 16.9021 10.8821 17.1638C10.411 17.9955 9.73396 18.5769 8.82883 18.8959C8.45851 19.0264 8.37853 19.1381 8.55936 19.475C8.98336 20.2648 8.78041 20.8929 8.17148 21.4682C8.04238 21.5989 7.93261 21.7474 7.8455 21.9091C7.64035 22.2641 7.73739 22.6961 8.118 23.05C8.19673 23.1138 8.2538 23.2004 8.28141 23.2979C8.30902 23.3954 8.30581 23.4991 8.27222 23.5947C8.18086 23.919 8.03707 24.2083 7.72433 24.377C7.58881 24.4526 7.47023 24.5551 7.37593 24.6783C6.98508 25.173 6.45141 25.2441 5.9103 25.0872C5.50908 24.9709 5.11237 25.0131 4.7178 24.9848C4.17101 24.9454 3.62409 24.9135 3.08101 24.8383C2.68054 24.7829 2.48329 24.4202 2.64469 24.0684C2.74355 23.8529 2.9468 23.8532 3.13304 23.8169C3.8939 23.6687 4.83494 22.7302 4.98727 21.9736C5.01796 21.8417 5.01005 21.7037 4.96448 21.5761C4.89739 21.3953 4.849 21.2047 4.75992 21.0354C4.48471 20.5126 4.4652 19.9961 4.70604 19.4514C4.83088 19.1691 4.84183 18.8552 4.79875 18.5439C4.77861 18.4394 4.77861 18.332 4.79874 18.2275C5.0103 17.4186 5.27804 16.637 5.90816 16.0381C6.04062 15.9123 6.15652 15.7687 6.27731 15.6309C6.31284 15.5904 6.37667 15.5479 6.33414 15.4851C6.31384 15.4574 6.28446 15.4377 6.25112 15.4294C6.21778 15.4212 6.18261 15.4249 6.15172 15.4399C6.07901 15.4657 6.00865 15.4988 5.93494 15.521C5.62693 15.6136 5.315 15.6844 4.99942 15.5644C4.83268 15.5009 4.6757 15.584 4.51291 15.5709C4.05724 15.5342 3.65242 15.3483 3.27712 15.1132C2.89906 14.8763 2.82731 14.5887 3.00511 14.1671C3.06177 14.0449 3.09146 13.9119 3.09217 13.7771C3.09287 13.6424 3.06457 13.5091 3.00919 13.3862C2.8615 13.0407 2.73786 12.6849 2.60502 12.3331C2.49321 12.0322 2.49005 11.7017 2.5961 11.3987C2.71946 11.0129 2.85012 10.6276 2.9384 10.2333C2.99421 9.98407 2.98082 9.7189 2.99402 9.46063C3.00867 9.17377 3.1291 8.94451 3.4043 8.85239C3.90938 8.68331 4.26562 8.31726 4.64326 7.975C4.92093 7.72335 5.26362 7.58857 5.6054 7.45574C6.354 7.16481 7.06626 6.82187 7.68516 6.28822C8.12461 5.9093 8.69939 5.83731 9.25827 5.77756C9.50618 5.75105 9.75314 5.70189 10.0054 5.70471ZM7.67071 14.3255C8.49625 14.1153 8.89018 13.5062 9.22547 12.838C9.26477 12.7597 9.30296 12.6845 9.25239 12.5937C9.05118 12.2324 9.15239 11.9044 9.37853 11.5995C9.51394 11.4169 9.46742 11.2841 9.33419 11.1155C8.99363 10.6845 8.5384 10.7388 8.09146 10.8045C7.76093 10.8532 7.41523 10.9262 7.21921 11.2478C6.92485 11.7308 7.04971 12.4622 7.47703 12.8261C7.55029 12.8884 7.62583 12.9484 7.69633 13.0137C7.89913 13.2017 7.97055 13.4149 7.86048 13.6884C7.77898 13.8909 7.73398 14.108 7.67072 14.3255L7.67071 14.3255Z" fill="#AEBFD7"/>
</g>
<defs>
<clipPath id="clip0">
<rect x="0.5" y="0.5" width="25" height="25" fill="white"/>
</clipPath>
</defs>
</svg>
