<svg fill="none" height="32" viewBox="0 0 74 32" width="74" xmlns="http://www.w3.org/2000/svg" xmlns:xlink="http://www.w3.org/1999/xlink"><linearGradient id="a" gradientUnits="userSpaceOnUse" x1="37" x2="37" y1="0" y2="32"><stop offset="0" stop-color="#fff" stop-opacity=".3"/><stop offset="1" stop-color="#fff" stop-opacity="0"/></linearGradient><g fill="url(#a)"><path d="m4 2c0 1.10457-.89543 2-2 2s-2-.89543-2-2 .89543-2 2-2 2 .89543 2 2z"/><path d="m18 2c0 1.10457-.8954 2-2 2s-2-.89543-2-2 .8954-2 2-2 2 .89543 2 2z"/><path d="m32 2c0 1.10457-.8954 2-2 2s-2-.89543-2-2 .8954-2 2-2 2 .89543 2 2z"/><path d="m46 2c0 1.10457-.8954 2-2 2s-2-.89543-2-2 .8954-2 2-2 2 .89543 2 2z"/><path d="m60 2c0 1.10457-.8954 2-2 2s-2-.89543-2-2 .8954-2 2-2 2 .89543 2 2z"/><path d="m74 2c0 1.10457-.8954 2-2 2s-2-.89543-2-2 .8954-2 2-2 2 .89543 2 2z"/><path d="m4 16c0 1.1046-.89543 2-2 2s-2-.8954-2-2 .89543-2 2-2 2 .8954 2 2z"/><path d="m18 16c0 1.1046-.8954 2-2 2s-2-.8954-2-2 .8954-2 2-2 2 .8954 2 2z"/><path d="m32 16c0 1.1046-.8954 2-2 2s-2-.8954-2-2 .8954-2 2-2 2 .8954 2 2z"/><path d="m46 16c0 1.1046-.8954 2-2 2s-2-.8954-2-2 .8954-2 2-2 2 .8954 2 2z"/><path d="m60 16c0 1.1046-.8954 2-2 2s-2-.8954-2-2 .8954-2 2-2 2 .8954 2 2z"/><path d="m74 16c0 1.1046-.8954 2-2 2s-2-.8954-2-2 .8954-2 2-2 2 .8954 2 2z"/><path d="m4 30c0 1.1046-.89543 2-2 2s-2-.8954-2-2 .89543-2 2-2 2 .8954 2 2z"/><path d="m18 30c0 1.1046-.8954 2-2 2s-2-.8954-2-2 .8954-2 2-2 2 .8954 2 2z"/><path d="m32 30c0 1.1046-.8954 2-2 2s-2-.8954-2-2 .8954-2 2-2 2 .8954 2 2z"/><path d="m46 30c0 1.1046-.8954 2-2 2s-2-.8954-2-2 .8954-2 2-2 2 .8954 2 2z"/><path d="m60 30c0 1.1046-.8954 2-2 2s-2-.8954-2-2 .8954-2 2-2 2 .8954 2 2z"/><path d="m74 30c0 1.1046-.8954 2-2 2s-2-.8954-2-2 .8954-2 2-2 2 .8954 2 2z"/></g></svg>