<svg fill="none" height="35" viewBox="0 0 80 35" width="80" xmlns="http://www.w3.org/2000/svg" xmlns:xlink="http://www.w3.org/1999/xlink"><linearGradient id="a" gradientUnits="userSpaceOnUse" x1="0" x2="80" y1="0" y2="35"><stop offset="0" stop-color="#fff" stop-opacity=".3"/><stop offset="1" stop-color="#fff" stop-opacity="0"/></linearGradient><g fill="url(#a)"><path d="m4.32432 2.1875c0 1.20812-.96803 2.1875-2.16216 2.1875-1.194127 0-2.16216-.97938-2.16216-2.1875 0-1.208123.968033-2.1875 2.16216-2.1875 1.19413 0 2.16216.979377 2.16216 2.1875z"/><path d="m19.4595 2.1875c0 1.20812-.9681 2.1875-2.1622 2.1875s-2.1622-.97938-2.1622-2.1875c0-1.208123.9681-2.1875 2.1622-2.1875s2.1622.979377 2.1622 2.1875z"/><path d="m34.5946 2.1875c0 1.20812-.968 2.1875-2.1622 2.1875-1.1941 0-2.1621-.97938-2.1621-2.1875 0-1.208123.968-2.1875 2.1621-2.1875 1.1942 0 2.1622.979377 2.1622 2.1875z"/><path d="m49.7297 2.1875c0 1.20812-.968 2.1875-2.1621 2.1875-1.1942 0-2.1622-.97938-2.1622-2.1875 0-1.208123.968-2.1875 2.1622-2.1875 1.1941 0 2.1621.979377 2.1621 2.1875z"/><path d="m64.8649 2.1875c0 1.20812-.9681 2.1875-2.1622 2.1875s-2.1622-.97938-2.1622-2.1875c0-1.208123.9681-2.1875 2.1622-2.1875s2.1622.979377 2.1622 2.1875z"/><path d="m80 2.1875c0 1.20812-.968 2.1875-2.1622 2.1875-1.1941 0-2.1621-.97938-2.1621-2.1875 0-1.208123.968-2.1875 2.1621-2.1875 1.1942 0 2.1622.979377 2.1622 2.1875z"/><path d="m4.32432 17.5c0 1.2081-.96803 2.1875-2.16216 2.1875-1.194127 0-2.16216-.9794-2.16216-2.1875s.968033-2.1875 2.16216-2.1875c1.19413 0 2.16216.9794 2.16216 2.1875z"/><path d="m19.4595 17.5c0 1.2081-.9681 2.1875-2.1622 2.1875s-2.1622-.9794-2.1622-2.1875.9681-2.1875 2.1622-2.1875 2.1622.9794 2.1622 2.1875z"/><path d="m34.5946 17.5c0 1.2081-.968 2.1875-2.1622 2.1875-1.1941 0-2.1621-.9794-2.1621-2.1875s.968-2.1875 2.1621-2.1875c1.1942 0 2.1622.9794 2.1622 2.1875z"/><path d="m49.7297 17.5c0 1.2081-.968 2.1875-2.1621 2.1875-1.1942 0-2.1622-.9794-2.1622-2.1875s.968-2.1875 2.1622-2.1875c1.1941 0 2.1621.9794 2.1621 2.1875z"/><path d="m64.8649 17.5c0 1.2081-.9681 2.1875-2.1622 2.1875s-2.1622-.9794-2.1622-2.1875.9681-2.1875 2.1622-2.1875 2.1622.9794 2.1622 2.1875z"/><path d="m80 17.5c0 1.2081-.968 2.1875-2.1622 2.1875-1.1941 0-2.1621-.9794-2.1621-2.1875s.968-2.1875 2.1621-2.1875c1.1942 0 2.1622.9794 2.1622 2.1875z"/><path d="m4.32432 32.8125c0 1.2081-.96803 2.1875-2.16216 2.1875-1.194127 0-2.16216-.9794-2.16216-2.1875s.968033-2.1875 2.16216-2.1875c1.19413 0 2.16216.9794 2.16216 2.1875z"/><path d="m19.4595 32.8125c0 1.2081-.9681 2.1875-2.1622 2.1875s-2.1622-.9794-2.1622-2.1875.9681-2.1875 2.1622-2.1875 2.1622.9794 2.1622 2.1875z"/><path d="m34.5946 32.8125c0 1.2081-.968 2.1875-2.1622 2.1875-1.1941 0-2.1621-.9794-2.1621-2.1875s.968-2.1875 2.1621-2.1875c1.1942 0 2.1622.9794 2.1622 2.1875z"/><path d="m49.7297 32.8125c0 1.2081-.968 2.1875-2.1621 2.1875-1.1942 0-2.1622-.9794-2.1622-2.1875s.968-2.1875 2.1622-2.1875c1.1941 0 2.1621.9794 2.1621 2.1875z"/><path d="m64.8649 32.8125c0 1.2081-.9681 2.1875-2.1622 2.1875s-2.1622-.9794-2.1622-2.1875.9681-2.1875 2.1622-2.1875 2.1622.9794 2.1622 2.1875z"/><path d="m80 32.8125c0 1.2081-.968 2.1875-2.1622 2.1875-1.1941 0-2.1621-.9794-2.1621-2.1875s.968-2.1875 2.1621-2.1875c1.1942 0 2.1622.9794 2.1622 2.1875z"/></g></svg>