<svg width="478" height="209" viewBox="0 0 478 209" fill="none" xmlns="http://www.w3.org/2000/svg">
<path d="M25.8378 13.0625C25.8378 20.2767 20.0538 26.125 12.9189 26.125C5.784 26.125 0 20.2767 0 13.0625C0 5.84828 5.784 0 12.9189 0C20.0538 0 25.8378 5.84828 25.8378 13.0625Z" fill="white"/>
<path d="M116.27 13.0625C116.27 20.2767 110.486 26.125 103.351 26.125C96.2164 26.125 90.4324 20.2767 90.4324 13.0625C90.4324 5.84828 96.2164 0 103.351 0C110.486 0 116.27 5.84828 116.27 13.0625Z" fill="white"/>
<path d="M206.703 13.0625C206.703 20.2767 200.919 26.125 193.784 26.125C186.649 26.125 180.865 20.2767 180.865 13.0625C180.865 5.84828 186.649 0 193.784 0C200.919 0 206.703 5.84828 206.703 13.0625Z" fill="white"/>
<path d="M297.135 13.0625C297.135 20.2767 291.351 26.125 284.216 26.125C277.081 26.125 271.297 20.2767 271.297 13.0625C271.297 5.84828 277.081 0 284.216 0C291.351 0 297.135 5.84828 297.135 13.0625Z" fill="white"/>
<path d="M387.568 13.0625C387.568 20.2767 381.784 26.125 374.649 26.125C367.514 26.125 361.73 20.2767 361.73 13.0625C361.73 5.84828 367.514 0 374.649 0C381.784 0 387.568 5.84828 387.568 13.0625Z" fill="white"/>
<path d="M478 13.0625C478 20.2767 472.216 26.125 465.081 26.125C457.946 26.125 452.162 20.2767 452.162 13.0625C452.162 5.84828 457.946 0 465.081 0C472.216 0 478 5.84828 478 13.0625Z" fill="white"/>
<path d="M25.8378 104.5C25.8378 111.714 20.0538 117.562 12.9189 117.562C5.784 117.562 0 111.714 0 104.5C0 97.2858 5.784 91.4375 12.9189 91.4375C20.0538 91.4375 25.8378 97.2858 25.8378 104.5Z" fill="white"/>
<path d="M116.27 104.5C116.27 111.714 110.486 117.562 103.351 117.562C96.2164 117.562 90.4324 111.714 90.4324 104.5C90.4324 97.2858 96.2164 91.4375 103.351 91.4375C110.486 91.4375 116.27 97.2858 116.27 104.5Z" fill="white"/>
<path d="M206.703 104.5C206.703 111.714 200.919 117.562 193.784 117.562C186.649 117.562 180.865 111.714 180.865 104.5C180.865 97.2858 186.649 91.4375 193.784 91.4375C200.919 91.4375 206.703 97.2858 206.703 104.5Z" fill="white"/>
<path d="M297.135 104.5C297.135 111.714 291.351 117.562 284.216 117.562C277.081 117.562 271.297 111.714 271.297 104.5C271.297 97.2858 277.081 91.4375 284.216 91.4375C291.351 91.4375 297.135 97.2858 297.135 104.5Z" fill="white"/>
<path d="M387.568 104.5C387.568 111.714 381.784 117.562 374.649 117.562C367.514 117.562 361.73 111.714 361.73 104.5C361.73 97.2858 367.514 91.4375 374.649 91.4375C381.784 91.4375 387.568 97.2858 387.568 104.5Z" fill="white"/>
<path d="M478 104.5C478 111.714 472.216 117.562 465.081 117.562C457.946 117.562 452.162 111.714 452.162 104.5C452.162 97.2858 457.946 91.4375 465.081 91.4375C472.216 91.4375 478 97.2858 478 104.5Z" fill="white"/>
<path d="M25.8378 195.938C25.8378 203.152 20.0538 209 12.9189 209C5.784 209 0 203.152 0 195.938C0 188.723 5.784 182.875 12.9189 182.875C20.0538 182.875 25.8378 188.723 25.8378 195.938Z" fill="white"/>
<path d="M116.27 195.938C116.27 203.152 110.486 209 103.351 209C96.2164 209 90.4324 203.152 90.4324 195.938C90.4324 188.723 96.2164 182.875 103.351 182.875C110.486 182.875 116.27 188.723 116.27 195.938Z" fill="white"/>
<path d="M206.703 195.938C206.703 203.152 200.919 209 193.784 209C186.649 209 180.865 203.152 180.865 195.938C180.865 188.723 186.649 182.875 193.784 182.875C200.919 182.875 206.703 188.723 206.703 195.938Z" fill="white"/>
<path d="M297.135 195.938C297.135 203.152 291.351 209 284.216 209C277.081 209 271.297 203.152 271.297 195.938C271.297 188.723 277.081 182.875 284.216 182.875C291.351 182.875 297.135 188.723 297.135 195.938Z" fill="white"/>
<path d="M387.568 195.938C387.568 203.152 381.784 209 374.649 209C367.514 209 361.73 203.152 361.73 195.938C361.73 188.723 367.514 182.875 374.649 182.875C381.784 182.875 387.568 188.723 387.568 195.938Z" fill="white"/>
<path d="M478 195.938C478 203.152 472.216 209 465.081 209C457.946 209 452.162 203.152 452.162 195.938C452.162 188.723 457.946 182.875 465.081 182.875C472.216 182.875 478 188.723 478 195.938Z" fill="white"/>
</svg>
