<svg fill="none" height="100" viewBox="0 0 100 100" width="100" xmlns="http://www.w3.org/2000/svg" xmlns:xlink="http://www.w3.org/1999/xlink"><linearGradient id="a" gradientUnits="userSpaceOnUse" x1="0" x2="114.93" y1="0" y2="21.9983"><stop offset="0" stop-color="#fff" stop-opacity=".3"/><stop offset="1" stop-color="#fff" stop-opacity="0"/></linearGradient><g fill="url(#a)"><path d="m50 0c25.7307 0 46.9556 19.148 50 43.871h-24.4034c-2.7786-11.4737-13.1844-20-25.5966-20s-22.818 8.5263-25.5966 20h-24.4034c3.04444-24.723 24.2693-43.871 50-43.871z"/><path d="m75.5966 56.129h24.4034c-3.0444 24.723-24.2693 43.871-50 43.871s-46.95556-19.148-50-43.871h24.4034c2.7786 11.4737 13.1844 20 25.5966 20s22.818-8.5263 25.5966-20z"/><path d="m50 66.4516c9.1541 0 16.5749-7.3656 16.5749-16.4516s-7.4208-16.4516-16.5749-16.4516-16.5749 7.3656-16.5749 16.4516 7.4208 16.4516 16.5749 16.4516z"/></g></svg>