<svg fill="none" height="115" viewBox="0 0 130 115" width="130" xmlns="http://www.w3.org/2000/svg" xmlns:xlink="http://www.w3.org/1999/xlink"><linearGradient id="a" gradientUnits="userSpaceOnUse" x1="72.5" x2="72.5" y1="-15" y2="130"><stop offset="0" stop-color="#fff" stop-opacity=".3"/><stop offset="1" stop-color="#fff" stop-opacity="0"/></linearGradient><g fill="url(#a)"><path d="m72.5-15c37.309 0 68.086 27.7646 72.5 63.6129h-35.385c-4.029-16.6368-19.1174-29-37.115-29s-33.0861 12.3632-37.1151 29h-35.3849c4.41443-35.8483 35.1905-63.6129 72.5-63.6129z"/><path d="m109.615 66.3871h35.385c-4.414 35.8479-35.191 63.6129-72.5 63.6129-37.3095 0-68.08557-27.765-72.5-63.6129h35.3849c4.029 16.6368 19.1175 29 37.1151 29s33.086-12.3632 37.115-29z"/><path d="m72.5 81.3548c13.2734 0 24.0336-10.6801 24.0336-23.8548s-10.7602-23.8548-24.0336-23.8548-24.0336 10.6801-24.0336 23.8548 10.7602 23.8548 24.0336 23.8548z"/></g></svg>