<svg fill="none" height="59" viewBox="0 0 100 59" width="100" xmlns="http://www.w3.org/2000/svg" xmlns:xlink="http://www.w3.org/1999/xlink"><linearGradient id="a" gradientUnits="userSpaceOnUse" x1="0" x2="110" y1="0" y2="110"><stop offset="0" stop-color="#fff" stop-opacity=".1"/><stop offset="1" stop-color="#fff" stop-opacity="0"/></linearGradient><g fill="url(#a)"><path d="m55 0c28.3037 0 51.651 21.0628 55 48.2581h-26.8438c-3.0564-12.6211-14.5028-22-28.1562-22s-25.0998 9.3789-28.1562 22h-26.8438c3.34888-27.1953 26.6963-48.2581 55-48.2581z"/><path d="m83.1562 61.7419h26.8438c-3.349 27.1953-26.6963 48.2581-55 48.2581s-51.65112-21.0628-55-48.2581h26.8438c3.0564 12.6211 14.5028 22 28.1562 22s25.0998-9.3789 28.1562-22z"/><path d="m55 73.0968c10.0695 0 18.2324-8.1022 18.2324-18.0968s-8.1629-18.0968-18.2324-18.0968-18.2324 8.1022-18.2324 18.0968 8.1629 18.0968 18.2324 18.0968z"/></g></svg>