<svg fill="none" height="207" viewBox="0 0 414 207" width="414" xmlns="http://www.w3.org/2000/svg" xmlns:xlink="http://www.w3.org/1999/xlink"><linearGradient id="a" gradientUnits="userSpaceOnUse" x1="207" x2="207" y1="0" y2="185.5"><stop offset="0" stop-color="#f5f5f5"/><stop offset="1" stop-color="#fff"/></linearGradient><g fill="url(#a)"><path d="m207-207c106.525 0 194.396 79.273 207 181.6258h-101.03c-11.504-47.501-54.584-82.7998-105.97-82.7998s-94.466 35.2988-105.97 82.7998h-101.03c12.604-102.3528 100.475-181.6258 207-181.6258z"/><path d="m312.97 25.3742h101.03c-12.604 102.3528-100.475 181.6258-207 181.6258s-194.396-79.273-207-181.6258h101.03c11.504 47.5009 54.584 82.7998 105.97 82.7998s94.466-35.2989 105.97-82.7998z"/><path d="m207 68.1096c37.898 0 68.62-30.4937 68.62-68.1096s-30.722-68.1097-68.62-68.1097-68.62 30.4938-68.62 68.1097 30.722 68.1096 68.62 68.1096z"/></g></svg>