<svg width="500" height="500" viewBox="0 0 500 500" fill="none" xmlns="http://www.w3.org/2000/svg">
<path d="M250 0C378.653 0 484.778 95.7399 500 219.355H377.983C364.09 161.987 312.061 119.355 250 119.355C187.939 119.355 135.91 161.987 122.017 219.355H0C15.2222 95.7399 121.347 0 250 0Z" fill="white"/>
<path d="M377.983 280.645H500C484.778 404.26 378.653 500 250 500C121.347 500 15.2222 404.26 0 280.645H122.017C135.91 338.013 187.939 380.645 250 380.645C312.061 380.645 364.09 338.013 377.983 280.645Z" fill="white"/>
<path d="M250 332.258C295.77 332.258 332.874 295.43 332.874 250C332.874 204.57 295.77 167.742 250 167.742C204.23 167.742 167.126 204.57 167.126 250C167.126 295.43 204.23 332.258 250 332.258Z" fill="white"/>
</svg>
