<svg width="26" height="26" viewBox="0 0 26 26" fill="none" xmlns="http://www.w3.org/2000/svg">
<g clip-path="url(#clip0)">
<path d="M4.8023 13.0041C4.52905 13.0554 4.29591 13.0828 4.17887 13.3499C4.10749 13.5128 3.98599 13.5622 3.84224 13.4084C3.67191 13.2261 3.53777 13.3091 3.41715 13.4709C3.39413 13.5018 3.37743 13.5376 3.35326 13.5675C3.28297 13.6542 3.23279 13.7917 3.09021 13.7491C2.97607 13.715 2.96524 13.5895 2.93826 13.4869C2.92196 13.4249 2.9563 13.351 2.88344 13.2883C2.82444 13.3303 2.76617 13.3777 2.7024 13.4159C2.5411 13.5126 2.44026 13.4595 2.42111 13.2786C2.40768 13.1517 2.43007 13.0179 2.23612 13.0236C2.20996 13.0244 2.15441 12.9625 2.15954 12.9514C2.25754 12.7406 2.08243 12.4961 2.18817 12.3191C2.54275 11.7256 2.7984 11.076 3.23553 10.5284C3.8177 9.79902 4.49589 9.17694 5.23166 8.60752C6.10999 7.92776 7.087 7.43193 8.10522 7.00844C8.25143 6.94763 8.3516 6.86541 8.39421 6.714C8.39919 6.69523 8.40773 6.67759 8.41937 6.66205C8.88602 6.07096 8.92529 5.35424 9.02036 4.65105C9.07805 4.20013 9.20782 3.76141 9.4047 3.35166C9.57202 3.00873 9.65282 2.98528 10.0137 3.09007C10.6315 3.2695 11.2163 3.50886 11.7006 3.94832C11.8126 4.04994 11.9371 4.05136 12.0788 4.01556C13.0862 3.76113 14.0691 3.82846 15.0197 4.25979C15.1738 4.32976 15.2932 4.31175 15.4477 4.22586C16.0886 3.86976 16.7345 3.51169 17.4922 3.47165C17.9155 3.44929 18.005 3.50316 18.0796 3.92773C18.1988 4.60599 18.1824 5.29418 18.111 5.97551C18.0502 6.5565 18.0302 6.54787 18.5669 6.80026C20.0334 7.48991 21.4027 8.33487 22.568 9.46841C23.4326 10.3094 24.2363 11.2105 24.853 12.259C25.0374 12.5725 25.1501 12.9203 25.3657 13.2251C25.4553 13.3518 25.6484 13.6605 25.298 13.8223C25.2025 13.8664 25.2538 13.9558 25.2682 14.0288C25.3283 14.3335 25.3156 14.3447 25.0033 14.2602C24.9669 14.2503 24.9313 14.2379 24.8974 14.2274C24.8362 14.3017 24.8972 14.3621 24.9012 14.425C24.9116 14.5916 24.8265 14.6379 24.6855 14.582C24.5894 14.537 24.4966 14.4855 24.4076 14.4278C24.0917 14.2488 23.9365 14.2797 23.7267 14.5633C23.5597 14.7892 23.4281 14.7887 23.3566 14.5185C23.273 14.2026 23.058 14.1411 22.7941 14.0773C22.5557 14.0196 22.5543 14.1034 22.5998 14.2907C22.7295 14.8246 22.9232 15.3483 22.963 15.8973C22.9982 16.3831 23.2313 16.8229 23.2396 17.309C23.2424 17.4667 23.3922 17.4911 23.4738 17.5783C23.79 17.9163 24.1048 17.9609 24.4632 17.6313C24.5581 17.544 24.7124 17.4434 24.8573 17.5567C24.9834 17.6553 24.9583 17.8216 24.9084 17.935C24.612 18.6099 24.7765 19.3418 24.6439 20.0228C24.3734 21.4121 23.5337 22.3647 22.1431 22.7908C21.5387 22.976 20.9433 23.0312 20.3245 22.8689C19.8421 22.7502 19.4223 22.4539 19.1488 22.0391C19.0433 21.8829 18.9395 21.8092 18.7447 21.8592C17.8979 22.0769 17.0582 21.9838 16.2273 21.7682C15.8743 21.6708 15.5029 21.6604 15.145 21.7379C13.928 22.0018 12.6947 22.0733 11.4684 21.838C10.9271 21.7396 10.3971 21.5872 9.88615 21.3831C9.63515 21.2821 9.35825 21.265 9.09674 21.3343C8.43558 21.4831 7.76439 21.5558 7.08576 21.4672C6.91396 21.4448 6.77489 21.4544 6.65533 21.6168C6.29652 22.1041 5.78015 22.3314 5.2018 22.4272C3.34753 22.7343 1.65217 21.4353 1.11428 20.0045C1.10148 19.9785 1.09133 19.9513 1.08399 19.9233C0.9968 19.3051 0.810974 18.7048 0.533595 18.1455C0.438351 17.9579 0.556535 17.8539 0.750874 17.8453C0.827952 17.8403 0.905326 17.8479 0.979971 17.8677C1.20583 17.9341 1.34482 17.836 1.50841 17.6804C1.78555 17.4167 1.93277 17.1389 1.90141 16.7444C1.88 16.4752 2.05341 16.3877 2.30266 16.4928C2.33989 16.5037 2.37403 16.5231 2.40231 16.5497C2.71497 16.9508 3.15373 16.8436 3.56724 16.8465C3.69986 16.8474 3.77522 16.7879 3.84753 16.6828C4.05009 16.4009 4.17134 16.0687 4.19804 15.7226C4.26832 14.8465 4.4601 13.9844 4.76787 13.1612C4.78211 13.1094 4.7936 13.057 4.8023 13.0041Z" fill="#5A92A5"/>
</g>
<defs>
<clipPath id="clip0">
<rect x="0.5" y="0.5" width="25" height="25" fill="white"/>
</clipPath>
</defs>
</svg>
